<svg xmlns="http://www.w3.org/2000/svg" id="canvas" viewBox="386.166 513.946 1718.622 210.676"><path d="M 413.24,518.14 C 412.73 519.74, 413.03 521.38, 412.84 526.15 C 412.66 530.91, 412.67 533.94, 412.33 541.95 C 411.98 549.97, 411.81 555.50, 411.10 566.21 C 410.39 576.92, 409.89 583.38, 408.80 595.52 C 407.71 607.66, 406.92 614.61, 405.66 626.91 C 404.39 639.20, 403.67 645.75, 402.47 656.98 C 401.27 668.20, 400.62 673.84, 399.66 683.02 C 398.69 692.19, 398.31 696.47, 397.64 702.85 C 396.97 709.23, 396.54 711.39, 396.32 714.90 C 396.11 718.42, 396.40 719.11, 396.57 720.42 C 396.75 721.73, 396.97 721.23, 397.18 721.45 C 397.39 721.66, 397.37 721.68, 397.63 721.50 C 397.88 721.32, 398.11 721.83, 398.46 720.55 C 398.80 719.27, 399.10 718.61, 399.35 715.10 C 399.60 711.60, 399.34 709.41, 399.72 703.02 C 400.11 696.64, 400.45 692.36, 401.28 683.18 C 402.12 674.00, 402.74 668.35, 403.89 657.13 C 405.05 645.90, 405.76 639.34, 407.04 627.05 C 408.31 614.75, 409.11 607.80, 410.29 595.66 C 411.46 583.52, 412.03 577.06, 412.89 566.34 C 413.76 555.63, 414.07 550.10, 414.61 542.08 C 415.16 534.06, 415.49 531.03, 415.63 526.24 C 415.78 521.46, 415.83 519.78, 415.35 518.16 C 414.87 516.54, 413.74 516.55, 413.24 518.14" style="stroke: black; fill: black;"/><path d="M 456.05,547.31 C 455.72 548.67, 456.07 549.75, 456.42 553.81 C 456.77 557.88, 457.28 560.63, 457.80 567.63 C 458.32 574.63, 458.59 579.43, 459.00 588.80 C 459.41 598.16, 459.62 604.04, 459.85 614.47 C 460.08 624.90, 460.13 630.80, 460.16 640.95 C 460.18 651.09, 460.11 656.29, 460.00 665.18 C 459.88 674.07, 459.81 678.54, 459.57 685.39 C 459.33 692.24, 459.02 695.10, 458.81 699.42 C 458.60 703.73, 458.28 705.43, 458.52 706.97 C 458.77 708.51, 459.51 708.59, 460.04 707.11 C 460.57 705.63, 460.85 703.90, 461.17 699.56 C 461.50 695.23, 461.57 692.32, 461.69 685.45 C 461.80 678.57, 461.74 674.09, 461.77 665.19 C 461.80 656.29, 461.85 651.09, 461.82 640.94 C 461.79 630.79, 461.76 624.88, 461.61 614.44 C 461.46 603.99, 461.32 598.12, 461.08 588.72 C 460.85 579.33, 460.73 574.53, 460.45 567.48 C 460.16 560.43, 460.13 557.58, 459.65 553.49 C 459.18 549.39, 458.79 548.24, 458.06 547.01 C 457.34 545.77, 456.38 545.95, 456.05 547.31" style="stroke: black; fill: black;"/><path d="M 389.85,651.90 C 390.73 652.52, 391.42 653.04, 394.18 653.03 C 396.94 653.03, 398.78 652.42, 403.65 651.88 C 408.53 651.34, 411.83 651.04, 418.56 650.33 C 425.28 649.62, 429.50 649.29, 437.26 648.33 C 445.02 647.38, 449.40 646.82, 457.36 645.55 C 465.32 644.27, 469.55 643.56, 477.05 641.97 C 484.55 640.38, 488.33 639.51, 494.84 637.60 C 501.34 635.69, 504.47 634.61, 509.58 632.41 C 514.69 630.21, 517.06 629.07, 520.40 626.61 C 523.74 624.16, 525.21 622.77, 526.28 620.14 C 527.35 617.51, 527.13 615.61, 525.76 613.48 C 524.40 611.34, 522.72 609.91, 519.47 609.46 C 516.22 609.01, 513.72 609.56, 509.51 611.22 C 505.29 612.88, 502.67 614.28, 498.39 617.77 C 494.12 621.25, 491.66 623.71, 488.15 628.64 C 484.64 633.56, 482.85 636.70, 480.85 642.40 C 478.85 648.10, 478.16 651.44, 478.14 657.14 C 478.13 662.83, 478.71 666.02, 480.78 670.88 C 482.85 675.74, 484.61 678.16, 488.52 681.44 C 492.42 684.71, 495.00 686.05, 500.29 687.24 C 505.58 688.42, 508.78 688.52, 514.94 687.37 C 521.11 686.22, 524.54 685.06, 531.13 681.51 C 537.71 677.96, 541.20 675.53, 547.88 669.62 C 554.57 663.71, 558.07 659.96, 564.53 651.96 C 570.99 643.96, 574.31 639.04, 580.19 629.61 C 586.07 620.18, 589.02 614.64, 593.94 604.83 C 598.87 595.02, 601.24 589.56, 604.82 580.57 C 608.40 571.58, 609.90 567.04, 611.86 559.87 C 613.81 552.71, 614.53 549.57, 614.61 544.75 C 614.68 539.93, 614.27 537.75, 612.23 535.79 C 610.18 533.82, 607.93 533.36, 604.39 534.91 C 600.84 536.46, 598.75 538.38, 594.51 543.53 C 590.26 548.68, 587.63 552.43, 583.16 560.68 C 578.68 568.92, 575.96 574.46, 572.14 584.75 C 568.33 595.04, 566.34 601.42, 564.06 612.13 C 561.78 622.84, 561.02 628.82, 560.74 638.28 C 560.47 647.74, 560.91 652.35, 562.68 659.43 C 564.44 666.51, 565.90 669.57, 569.55 673.67 C 573.21 677.78, 575.82 679.12, 580.95 679.95 C 586.09 680.79, 589.15 680.29, 595.21 677.83 C 601.28 675.37, 604.63 673.18, 611.29 667.67 C 617.95 662.15, 621.65 658.41, 628.50 650.25 C 635.36 642.09, 639.03 636.91, 645.55 626.86 C 652.07 616.82, 655.47 610.67, 661.09 600.03 C 666.72 589.39, 669.49 583.45, 673.67 573.68 C 677.85 563.92, 679.62 558.95, 681.99 551.21 C 684.36 543.47, 685.21 540.10, 685.53 534.99 C 685.85 529.88, 685.57 527.71, 683.59 525.64 C 681.62 523.56, 679.36 523.12, 675.64 524.62 C 671.92 526.11, 669.61 528.03, 665.01 533.10 C 660.40 538.18, 657.54 541.86, 652.60 549.99 C 647.65 558.12, 644.64 563.61, 640.27 573.75 C 635.91 583.89, 633.57 590.17, 630.78 600.69 C 627.98 611.20, 626.89 617.04, 626.31 626.33 C 625.73 635.63, 626.02 640.16, 627.88 647.16 C 629.74 654.16, 631.43 657.15, 635.60 661.34 C 639.76 665.53, 642.73 666.80, 648.70 668.11 C 654.67 669.41, 658.44 669.08, 665.45 667.86 C 672.45 666.64, 676.58 665.14, 683.74 661.99 C 690.90 658.84, 694.83 656.42, 701.24 652.11 C 707.65 647.80, 710.91 644.96, 715.78 640.42 C 720.66 635.89, 722.90 633.40, 725.60 629.44 C 728.31 625.49, 729.32 623.48, 729.29 620.64 C 729.27 617.80, 727.97 616.19, 725.49 615.24 C 723.02 614.29, 720.64 614.47, 716.91 615.89 C 713.17 617.32, 710.67 619.04, 706.82 622.37 C 702.98 625.69, 700.66 628.14, 697.67 632.51 C 694.67 636.88, 693.12 639.63, 691.83 644.22 C 690.55 648.80, 690.17 651.57, 691.22 655.44 C 692.27 659.31, 693.76 661.33, 697.10 663.56 C 700.44 665.79, 703.11 666.36, 707.92 666.60 C 712.72 666.84, 715.78 666.32, 721.12 664.77 C 726.47 663.21, 729.62 661.80, 734.64 658.83 C 739.66 655.87, 742.36 653.85, 746.21 649.94 C 750.05 646.04, 751.88 643.60, 753.87 639.30 C 755.86 635.00, 756.49 632.47, 756.17 628.43 C 755.84 624.40, 754.79 622.11, 752.25 619.11 C 749.72 616.11, 747.43 614.92, 743.49 613.43 C 739.56 611.94, 736.82 611.72, 732.57 611.66 C 728.32 611.60, 725.65 612.25, 722.24 613.14 C 718.83 614.03, 717.42 614.92, 715.50 616.12 C 713.59 617.32, 713.07 618.28, 712.66 619.15 C 712.25 620.02, 712.57 620.37, 713.45 620.47 C 714.33 620.57, 715.07 620.18, 717.06 619.66 C 719.06 619.13, 720.31 618.59, 723.42 617.85 C 726.53 617.11, 728.87 616.09, 732.61 615.96 C 736.35 615.83, 738.78 616.08, 742.13 617.21 C 745.49 618.34, 747.28 619.31, 749.38 621.62 C 751.49 623.92, 752.33 625.47, 752.64 628.74 C 752.94 632.00, 752.64 634.13, 750.91 637.94 C 749.19 641.76, 747.59 644.15, 744.02 647.80 C 740.46 651.45, 737.85 653.43, 733.10 656.19 C 728.34 658.96, 725.23 660.26, 720.23 661.64 C 715.23 663.03, 712.33 663.35, 708.09 663.13 C 703.86 662.92, 701.75 662.28, 699.07 660.56 C 696.38 658.84, 695.44 657.61, 694.67 654.54 C 693.89 651.46, 694.01 649.18, 695.20 645.19 C 696.38 641.19, 697.76 638.52, 700.60 634.57 C 703.44 630.62, 705.80 628.36, 709.40 625.43 C 712.99 622.49, 715.53 621.31, 718.59 619.88 C 721.64 618.44, 723.17 618.14, 724.69 618.25 C 726.22 618.37, 726.51 618.55, 726.20 620.45 C 725.89 622.36, 725.56 624.14, 723.14 627.78 C 720.73 631.42, 718.74 634.16, 714.10 638.66 C 709.47 643.15, 706.25 646.01, 699.99 650.26 C 693.74 654.52, 689.83 656.88, 682.84 659.94 C 675.85 663.01, 671.78 664.40, 665.05 665.58 C 658.31 666.77, 654.77 667.01, 649.18 665.86 C 643.59 664.71, 640.99 663.67, 637.09 659.83 C 633.20 655.99, 631.52 653.35, 629.69 646.67 C 627.87 639.99, 627.45 635.55, 627.98 626.43 C 628.51 617.32, 629.56 611.50, 632.33 601.10 C 635.10 590.70, 637.44 584.43, 641.84 574.43 C 646.24 564.42, 649.33 558.98, 654.35 551.07 C 659.36 543.16, 662.41 539.61, 666.91 534.87 C 671.42 530.13, 673.90 528.88, 676.87 527.36 C 679.84 525.85, 680.50 525.81, 681.76 527.30 C 683.03 528.80, 683.51 530.16, 683.21 534.84 C 682.91 539.52, 682.45 543.05, 680.26 550.70 C 678.08 558.35, 676.36 563.36, 672.28 573.09 C 668.19 582.82, 665.42 588.77, 659.83 599.36 C 654.23 609.95, 650.83 616.09, 644.31 626.05 C 637.78 636.01, 634.08 641.15, 627.22 649.16 C 620.36 657.18, 616.60 660.81, 610.02 666.11 C 603.45 671.42, 600.09 673.38, 594.35 675.67 C 588.61 677.96, 585.96 678.26, 581.33 677.56 C 576.70 676.87, 574.56 675.91, 571.20 672.19 C 567.84 668.47, 566.28 665.74, 564.52 658.96 C 562.76 652.19, 562.19 647.62, 562.42 638.33 C 562.64 629.03, 563.36 623.06, 565.63 612.47 C 567.90 601.87, 569.89 595.51, 573.76 585.36 C 577.63 575.20, 580.43 569.71, 584.98 561.69 C 589.54 553.67, 592.38 550.04, 596.54 545.25 C 600.70 540.46, 602.99 539.26, 605.76 537.73 C 608.53 536.20, 609.12 536.21, 610.38 537.60 C 611.65 539.00, 612.18 540.35, 612.09 544.70 C 612.00 549.06, 611.72 552.33, 609.96 559.38 C 608.19 566.43, 606.76 571.01, 603.28 579.97 C 599.81 588.92, 597.45 594.38, 592.57 604.14 C 587.69 613.91, 584.75 619.44, 578.88 628.79 C 573.01 638.14, 569.68 643.02, 563.23 650.90 C 556.77 658.78, 553.25 662.46, 546.63 668.18 C 540.00 673.91, 536.51 676.20, 530.08 679.53 C 523.66 682.86, 520.32 683.84, 514.49 684.83 C 508.66 685.82, 505.74 685.60, 500.92 684.47 C 496.11 683.34, 493.90 682.14, 490.40 679.19 C 486.91 676.24, 485.33 674.15, 483.44 669.74 C 481.54 665.33, 480.94 662.42, 480.95 657.14 C 480.96 651.86, 481.57 648.69, 483.49 643.34 C 485.42 637.99, 487.17 634.97, 490.57 630.40 C 493.98 625.83, 496.45 623.53, 500.52 620.48 C 504.60 617.44, 507.24 616.40, 510.95 615.18 C 514.65 613.95, 516.61 614.31, 519.05 614.35 C 521.48 614.39, 522.34 614.52, 523.13 615.37 C 523.91 616.22, 523.93 616.88, 522.97 618.60 C 522.02 620.31, 521.27 621.66, 518.37 623.94 C 515.47 626.21, 513.32 627.68, 508.48 629.98 C 503.64 632.27, 500.55 633.43, 494.18 635.41 C 487.80 637.39, 484.04 638.29, 476.61 639.90 C 469.18 641.51, 464.95 642.22, 457.03 643.44 C 449.11 644.66, 444.74 645.20, 437.00 646.00 C 429.25 646.80, 425.04 647.03, 418.31 647.45 C 411.59 647.87, 408.26 647.91, 403.37 648.10 C 398.48 648.28, 396.59 648.00, 393.86 648.36 C 391.14 648.73, 390.55 649.21, 389.75 649.92 C 388.95 650.63, 388.96 651.27, 389.85 651.90" style="stroke: black; fill: black;"/><path d="M 807.26,670.44 C 806.46 671.66, 806.49 673.22, 805.42 676.84 C 804.34 680.46, 803.33 683.95, 801.89 688.54 C 800.46 693.13, 798.37 697.31, 798.24 699.78 C 798.12 702.25, 799.74 702.88, 801.26 700.89 C 802.77 698.91, 804.19 694.47, 805.83 689.85 C 807.46 685.24, 808.72 681.63, 809.45 677.81 C 810.17 673.99, 809.88 672.22, 809.44 670.74 C 809.01 669.27, 808.07 669.23, 807.26 670.44" style="stroke: black; fill: black;"/><path d="M 962.13,537.20 C 961.76 539.56, 962.50 542.51, 962.53 548.91 C 962.55 555.30, 962.56 559.84, 962.24 569.18 C 961.92 578.52, 961.65 584.96, 960.93 595.60 C 960.21 606.24, 959.59 612.27, 958.63 622.37 C 957.67 632.47, 957.03 637.63, 956.13 646.08 C 955.23 654.53, 954.74 658.73, 954.13 664.64 C 953.52 670.54, 953.17 672.41, 953.07 675.60 C 952.97 678.80, 953.28 679.62, 953.63 680.63 C 953.99 681.64, 954.42 681.64, 954.84 680.67 C 955.26 679.70, 955.43 678.94, 955.75 675.78 C 956.06 672.61, 955.98 670.75, 956.42 664.84 C 956.86 658.94, 957.18 654.72, 957.96 646.26 C 958.73 637.80, 959.35 632.64, 960.31 622.53 C 961.26 612.42, 961.93 606.38, 962.72 595.72 C 963.51 585.07, 963.85 578.62, 964.26 569.26 C 964.66 559.90, 964.73 555.34, 964.76 548.91 C 964.79 542.48, 964.91 539.47, 964.38 537.13 C 963.86 534.79, 962.50 534.85, 962.13 537.20" style="stroke: black; fill: black;"/><path d="M 1033.08,545.51 C 1032.14 546.56, 1031.21 548.06, 1030.67 551.12 C 1030.13 554.18, 1029.69 558.77, 1030.39 560.79 C 1031.09 562.81, 1033.00 563.03, 1034.15 561.24 C 1035.31 559.44, 1035.90 554.90, 1036.15 551.82 C 1036.39 548.73, 1035.98 547.09, 1035.37 545.83 C 1034.76 544.57, 1034.02 544.45, 1033.08 545.51" style="stroke: black; fill: black;"/><path d="M 1087.39,622.30 C 1086.88 623.70, 1087.08 625.64, 1087.19 629.03 C 1087.30 632.43, 1087.76 634.80, 1087.94 639.27 C 1088.13 643.74, 1088.19 646.94, 1088.13 651.38 C 1088.08 655.82, 1087.49 658.19, 1087.68 661.46 C 1087.87 664.73, 1088.04 666.20, 1089.07 667.74 C 1090.11 669.28, 1091.07 669.82, 1092.85 669.18 C 1094.63 668.54, 1095.71 667.40, 1097.97 664.53 C 1100.23 661.66, 1101.28 659.01, 1104.16 654.83 C 1107.03 650.65, 1108.91 647.75, 1112.36 643.65 C 1115.81 639.55, 1118.02 637.17, 1121.41 634.33 C 1124.80 631.48, 1126.72 630.44, 1129.33 629.43 C 1131.94 628.42, 1132.86 628.48, 1134.46 629.28 C 1136.06 630.08, 1136.39 631.21, 1137.33 633.43 C 1138.28 635.65, 1138.62 637.39, 1139.19 640.39 C 1139.76 643.38, 1139.54 645.46, 1140.19 648.39 C 1140.83 651.33, 1141.12 653.05, 1142.42 655.08 C 1143.72 657.10, 1144.60 657.99, 1146.69 658.53 C 1148.79 659.07, 1150.17 659.11, 1152.90 657.77 C 1155.62 656.44, 1156.95 654.63, 1160.31 651.85 C 1163.66 649.07, 1165.70 646.92, 1169.66 643.89 C 1173.62 640.86, 1176.06 638.95, 1180.11 636.72 C 1184.17 634.48, 1186.47 633.48, 1189.92 632.72 C 1193.37 631.95, 1194.84 632.08, 1197.38 632.91 C 1199.93 633.74, 1200.79 634.63, 1202.63 636.84 C 1204.47 639.05, 1205.15 640.80, 1206.59 643.97 C 1208.03 647.14, 1208.54 649.24, 1209.84 652.69 C 1211.14 656.15, 1211.76 658.23, 1213.09 661.24 C 1214.41 664.24, 1215.15 665.75, 1216.46 667.72 C 1217.76 669.69, 1218.46 670.17, 1219.61 671.09 C 1220.76 672.02, 1221.29 672.18, 1222.20 672.34 C 1223.11 672.51, 1223.65 672.22, 1224.16 671.92 C 1224.67 671.62, 1224.88 671.25, 1224.73 670.85 C 1224.58 670.44, 1223.73 670.06, 1223.41 669.89 C 1223.09 669.72, 1223.15 670.02, 1223.12 670.01 C 1223.09 670.01, 1223.39 670.15, 1223.25 669.87 C 1223.10 669.59, 1222.89 669.52, 1222.39 668.60 C 1221.88 667.68, 1221.64 667.15, 1220.71 665.26 C 1219.79 663.37, 1219.05 662.01, 1217.75 659.15 C 1216.44 656.29, 1215.60 654.40, 1214.19 650.98 C 1212.77 647.56, 1212.35 645.44, 1210.68 642.04 C 1209.01 638.64, 1208.28 636.57, 1205.86 633.98 C 1203.43 631.38, 1201.91 630.06, 1198.56 629.08 C 1195.21 628.09, 1193.15 628.17, 1189.12 629.06 C 1185.08 629.95, 1182.73 631.19, 1178.38 633.52 C 1174.02 635.86, 1171.53 637.80, 1167.35 640.75 C 1163.18 643.69, 1160.93 645.75, 1157.50 648.24 C 1154.08 650.73, 1152.28 651.75, 1150.23 653.19 C 1148.18 654.63, 1147.98 655.43, 1147.24 655.46 C 1146.50 655.49, 1146.76 654.98, 1146.53 653.35 C 1146.30 651.73, 1146.49 650.18, 1146.10 647.33 C 1145.70 644.49, 1145.45 642.40, 1144.58 639.14 C 1143.70 635.88, 1143.45 633.69, 1141.73 631.03 C 1140.00 628.37, 1138.68 626.88, 1135.94 625.82 C 1133.19 624.77, 1131.36 624.60, 1128.00 625.75 C 1124.63 626.91, 1122.79 628.50, 1119.12 631.62 C 1115.46 634.73, 1113.33 637.17, 1109.66 641.32 C 1106.00 645.47, 1103.93 648.30, 1100.78 652.36 C 1097.64 656.43, 1095.88 658.71, 1093.95 661.63 C 1092.03 664.55, 1091.63 665.90, 1091.17 666.97 C 1090.70 668.05, 1091.35 668.11, 1091.63 667.01 C 1091.90 665.90, 1092.37 664.57, 1092.54 661.45 C 1092.71 658.32, 1092.54 655.84, 1092.47 651.37 C 1092.40 646.90, 1092.39 643.64, 1092.20 639.10 C 1092.01 634.55, 1092.02 632.06, 1091.53 628.65 C 1091.04 625.23, 1090.58 623.29, 1089.75 622.02 C 1088.92 620.75, 1087.90 620.90, 1087.39 622.30" style="stroke: black; fill: black;"/><path d="M 1429.02,614.44 C 1428.03 613.52, 1426.60 612.49, 1423.66 612.09 C 1420.72 611.68, 1418.52 611.91, 1414.34 612.43 C 1410.16 612.95, 1407.20 613.30, 1402.76 614.69 C 1398.31 616.08, 1395.68 617.13, 1392.12 619.36 C 1388.55 621.59, 1386.59 622.93, 1384.91 625.85 C 1383.23 628.76, 1382.81 630.80, 1383.72 633.96 C 1384.62 637.11, 1386.22 638.62, 1389.46 641.62 C 1392.70 644.63, 1395.27 646.05, 1399.91 649.00 C 1404.56 651.95, 1407.71 653.47, 1412.68 656.37 C 1417.65 659.27, 1420.67 660.77, 1424.76 663.50 C 1428.84 666.23, 1430.83 667.76, 1433.10 670.02 C 1435.37 672.29, 1436.02 673.09, 1436.09 674.83 C 1436.16 676.56, 1435.57 676.98, 1433.45 678.69 C 1431.32 680.40, 1429.52 681.61, 1425.47 683.38 C 1421.42 685.16, 1418.37 686.19, 1413.19 687.57 C 1408.01 688.95, 1404.63 689.60, 1399.58 690.28 C 1394.53 690.96, 1390.25 690.32, 1387.94 690.97 C 1385.62 691.61, 1385.61 693.00, 1388.02 693.50 C 1390.42 694.00, 1394.74 693.95, 1399.95 693.46 C 1405.15 692.96, 1408.65 692.31, 1414.06 691.01 C 1419.47 689.72, 1422.56 688.81, 1427.00 686.97 C 1431.43 685.12, 1433.74 684.22, 1436.23 681.77 C 1438.72 679.32, 1439.53 677.57, 1439.44 674.71 C 1439.35 671.85, 1438.36 670.25, 1435.79 667.46 C 1433.21 664.66, 1430.87 663.50, 1426.58 660.72 C 1422.29 657.95, 1419.27 656.52, 1414.32 653.59 C 1409.36 650.66, 1406.26 649.03, 1401.81 646.07 C 1397.37 643.12, 1394.92 641.47, 1392.09 638.81 C 1389.26 636.14, 1388.36 634.90, 1387.65 632.75 C 1386.93 630.61, 1387.19 630.04, 1388.53 628.08 C 1389.86 626.12, 1391.22 624.80, 1394.32 622.95 C 1397.41 621.10, 1399.90 620.00, 1404.00 618.82 C 1408.10 617.64, 1410.96 617.39, 1414.83 617.05 C 1418.70 616.71, 1420.61 617.20, 1423.36 617.13 C 1426.12 617.06, 1427.48 617.24, 1428.61 616.70 C 1429.74 616.17, 1430.01 615.36, 1429.02 614.44" style="stroke: black; fill: black;"/><path d="M 1476.15,555.89 C 1475.63 557.24, 1475.80 558.68, 1475.68 562.59 C 1475.56 566.51, 1475.78 569.18, 1475.54 575.47 C 1475.30 581.76, 1475.14 586.19, 1474.48 594.03 C 1473.82 601.88, 1473.22 606.69, 1472.24 614.70 C 1471.27 622.72, 1470.51 627.12, 1469.59 634.10 C 1468.67 641.09, 1468.04 644.45, 1467.64 649.62 C 1467.24 654.78, 1466.70 656.97, 1467.59 659.93 C 1468.48 662.88, 1469.70 663.88, 1472.09 664.39 C 1474.49 664.89, 1476.19 664.32, 1479.54 662.45 C 1482.90 660.59, 1484.76 658.40, 1488.86 655.06 C 1492.97 651.71, 1495.53 649.16, 1500.09 645.72 C 1504.64 642.29, 1507.39 640.22, 1511.65 637.87 C 1515.91 635.52, 1518.22 634.60, 1521.40 633.98 C 1524.58 633.36, 1525.70 633.67, 1527.57 634.78 C 1529.43 635.89, 1529.80 636.92, 1530.73 639.52 C 1531.66 642.13, 1531.83 644.11, 1532.22 647.80 C 1532.62 651.49, 1532.52 654.00, 1532.70 657.99 C 1532.88 661.98, 1532.60 664.27, 1533.13 667.74 C 1533.67 671.22, 1533.88 673.04, 1535.36 675.37 C 1536.83 677.71, 1538.02 678.73, 1540.52 679.42 C 1543.01 680.10, 1544.74 680.11, 1547.83 678.80 C 1550.93 677.49, 1552.53 675.94, 1555.99 672.88 C 1559.46 669.81, 1561.42 667.61, 1565.16 663.48 C 1568.90 659.35, 1571.05 656.58, 1574.70 652.22 C 1578.35 647.87, 1580.59 645.03, 1583.42 641.69 C 1586.25 638.36, 1587.62 636.82, 1588.85 635.55 C 1590.08 634.29, 1589.62 634.15, 1589.57 635.38 C 1589.52 636.61, 1588.92 638.34, 1588.60 641.70 C 1588.28 645.06, 1587.99 647.92, 1587.97 652.18 C 1587.95 656.43, 1587.83 659.13, 1588.48 662.96 C 1589.14 666.79, 1589.48 668.75, 1591.23 671.33 C 1592.99 673.90, 1594.44 674.93, 1597.26 675.84 C 1600.07 676.75, 1601.92 676.77, 1605.32 675.86 C 1608.72 674.96, 1610.54 673.79, 1614.26 671.31 C 1617.98 668.83, 1620.05 666.93, 1623.91 663.44 C 1627.76 659.96, 1629.94 657.49, 1633.53 653.88 C 1637.11 650.28, 1639.23 648.04, 1641.82 645.42 C 1644.42 642.80, 1645.39 641.56, 1646.51 640.78 C 1647.63 640.00, 1647.29 640.17, 1647.41 641.52 C 1647.53 642.87, 1647.05 644.49, 1647.10 647.53 C 1647.15 650.56, 1647.18 653.02, 1647.64 656.70 C 1648.11 660.38, 1648.28 662.69, 1649.41 665.93 C 1650.54 669.17, 1651.27 670.79, 1653.30 672.89 C 1655.32 674.99, 1656.71 675.85, 1659.54 676.42 C 1662.37 676.99, 1664.15 676.90, 1667.44 675.74 C 1670.74 674.57, 1672.44 673.29, 1676.01 670.60 C 1679.58 667.91, 1681.54 665.95, 1685.30 662.29 C 1689.05 658.63, 1691.19 656.16, 1694.79 652.31 C 1698.40 648.46, 1700.53 645.92, 1703.31 643.03 C 1706.08 640.14, 1707.30 638.81, 1708.66 637.88 C 1710.03 636.95, 1709.81 637.12, 1710.14 638.37 C 1710.47 639.61, 1710.12 641.18, 1710.31 644.10 C 1710.50 647.01, 1710.64 649.42, 1711.10 652.95 C 1711.57 656.47, 1711.82 658.93, 1712.63 661.74 C 1713.44 664.55, 1714.26 665.52, 1715.17 667.00 C 1716.08 668.48, 1716.54 668.81, 1717.18 669.15 C 1717.82 669.49, 1718.10 669.31, 1718.38 668.69 C 1718.65 668.08, 1718.51 667.69, 1718.56 666.06 C 1718.60 664.43, 1718.93 663.33, 1718.61 660.53 C 1718.29 657.73, 1717.53 655.55, 1716.95 652.08 C 1716.37 648.60, 1716.57 646.26, 1715.72 643.16 C 1714.87 640.06, 1714.38 638.25, 1712.71 636.59 C 1711.03 634.94, 1709.78 634.13, 1707.34 634.87 C 1704.90 635.61, 1703.54 637.28, 1700.52 640.29 C 1697.49 643.30, 1695.76 646.05, 1692.22 649.93 C 1688.68 653.81, 1686.54 656.22, 1682.82 659.69 C 1679.10 663.15, 1677.01 664.94, 1673.61 667.25 C 1670.21 669.56, 1668.48 670.26, 1665.82 671.23 C 1663.17 672.19, 1662.14 672.36, 1660.31 672.09 C 1658.49 671.82, 1657.87 671.44, 1656.70 669.90 C 1655.53 668.36, 1655.15 667.17, 1654.46 664.40 C 1653.77 661.63, 1653.61 659.55, 1653.26 656.06 C 1652.90 652.57, 1653.27 650.15, 1652.68 646.96 C 1652.09 643.76, 1651.75 641.88, 1650.31 640.09 C 1648.87 638.29, 1647.74 637.50, 1645.47 637.98 C 1643.21 638.46, 1641.89 639.79, 1638.98 642.46 C 1636.08 645.14, 1634.43 647.70, 1630.93 651.35 C 1627.43 655.00, 1625.26 657.41, 1621.48 660.71 C 1617.70 664.01, 1615.52 665.72, 1612.04 667.85 C 1608.56 669.99, 1606.79 670.59, 1604.07 671.39 C 1601.35 672.18, 1600.27 672.32, 1598.46 671.84 C 1596.65 671.35, 1596.07 670.86, 1595.01 668.95 C 1593.95 667.04, 1593.54 665.63, 1593.15 662.28 C 1592.76 658.94, 1592.98 656.35, 1593.07 652.25 C 1593.16 648.14, 1593.79 645.35, 1593.59 641.78 C 1593.38 638.20, 1593.32 636.14, 1592.04 634.37 C 1590.76 632.59, 1589.46 631.94, 1587.17 632.92 C 1584.88 633.90, 1583.60 635.83, 1580.60 639.27 C 1577.60 642.71, 1575.75 645.74, 1572.16 650.11 C 1568.56 654.48, 1566.39 657.20, 1562.63 661.12 C 1558.87 665.05, 1556.73 667.08, 1553.36 669.73 C 1550.00 672.39, 1548.21 673.17, 1545.81 674.38 C 1543.41 675.60, 1542.69 676.00, 1541.36 675.79 C 1540.02 675.59, 1539.81 675.11, 1539.12 673.37 C 1538.42 671.63, 1538.25 670.21, 1537.88 667.09 C 1537.50 663.97, 1537.48 661.72, 1537.24 657.75 C 1537.01 653.79, 1537.21 651.26, 1536.71 647.28 C 1536.22 643.30, 1536.23 641.02, 1534.77 637.85 C 1533.31 634.68, 1532.24 632.91, 1529.43 631.43 C 1526.62 629.94, 1524.61 629.73, 1520.73 630.43 C 1516.86 631.14, 1514.57 632.44, 1510.04 634.96 C 1505.51 637.48, 1502.79 639.59, 1498.08 643.02 C 1493.37 646.44, 1490.65 648.90, 1486.51 652.09 C 1482.37 655.27, 1480.19 657.00, 1477.38 658.93 C 1474.56 660.85, 1473.72 661.68, 1472.43 661.72 C 1471.14 661.76, 1471.32 661.51, 1470.92 659.12 C 1470.51 656.73, 1470.23 654.73, 1470.42 649.78 C 1470.62 644.83, 1471.09 641.35, 1471.90 634.39 C 1472.71 627.43, 1473.46 623.00, 1474.47 614.98 C 1475.48 606.95, 1476.15 602.13, 1476.96 594.26 C 1477.77 586.39, 1478.07 581.96, 1478.51 575.63 C 1478.95 569.30, 1479.20 566.59, 1479.16 562.63 C 1479.12 558.67, 1478.90 557.17, 1478.30 555.82 C 1477.69 554.48, 1476.67 554.53, 1476.15 555.89" style="stroke: black; fill: black;"/><path d="M 1723.47,587.97 C 1724.27 588.20, 1724.64 588.31, 1724.65 588.18 C 1724.66 588.05, 1724.16 587.79, 1723.53 587.32 C 1722.91 586.86, 1722.26 586.16, 1721.52 585.84 C 1720.79 585.53, 1720.01 585.52, 1719.84 585.75 C 1719.67 585.99, 1719.94 586.58, 1720.67 587.02 C 1721.39 587.47, 1722.67 587.74, 1723.47 587.97" style="stroke: black; fill: black;"/><path d="M 1797.48,626.35 C 1796.69 625.68, 1795.82 625.11, 1793.55 625.13 C 1791.29 625.14, 1789.57 625.08, 1786.15 626.42 C 1782.72 627.76, 1780.39 628.96, 1776.44 631.83 C 1772.49 634.69, 1770.10 636.75, 1766.40 640.73 C 1762.69 644.71, 1760.49 647.23, 1757.90 651.73 C 1755.32 656.22, 1754.01 658.89, 1753.47 663.20 C 1752.94 667.50, 1753.19 670.04, 1755.23 673.25 C 1757.28 676.47, 1759.34 677.91, 1763.69 679.27 C 1768.04 680.63, 1770.98 680.77, 1776.99 680.06 C 1783.00 679.35, 1786.69 678.43, 1793.72 675.72 C 1800.75 673.01, 1804.81 671.05, 1812.13 666.50 C 1819.46 661.94, 1823.38 659.06, 1830.35 652.94 C 1837.33 646.82, 1840.94 643.13, 1847.01 635.88 C 1853.08 628.63, 1856.01 624.38, 1860.69 616.69 C 1865.36 609.01, 1867.35 604.66, 1870.39 597.45 C 1873.42 590.24, 1874.52 586.51, 1875.87 580.64 C 1877.22 574.78, 1877.57 572.05, 1877.15 568.12 C 1876.73 564.20, 1875.83 562.46, 1873.75 561.01 C 1871.67 559.56, 1869.53 559.29, 1866.74 560.88 C 1863.95 562.46, 1862.48 564.54, 1859.78 568.95 C 1857.09 573.35, 1855.68 576.46, 1853.26 582.89 C 1850.84 589.33, 1849.54 593.60, 1847.69 601.11 C 1845.83 608.62, 1844.96 613.13, 1843.98 620.45 C 1842.99 627.76, 1842.67 631.60, 1842.77 637.69 C 1842.86 643.78, 1843.13 646.53, 1844.44 650.91 C 1845.74 655.30, 1846.70 657.15, 1849.29 659.62 C 1851.88 662.09, 1853.75 662.82, 1857.39 663.27 C 1861.03 663.72, 1863.19 663.14, 1867.49 661.87 C 1871.78 660.61, 1874.26 659.23, 1878.86 656.93 C 1883.47 654.63, 1886.11 652.79, 1890.52 650.39 C 1894.93 647.99, 1897.32 646.45, 1900.92 644.93 C 1904.52 643.41, 1906.17 643.02, 1908.53 642.79 C 1910.89 642.56, 1911.44 642.65, 1912.72 643.78 C 1914.00 644.91, 1914.04 646.15, 1914.92 648.45 C 1915.79 650.76, 1916.07 652.48, 1917.10 655.29 C 1918.13 658.11, 1918.50 659.94, 1920.07 662.52 C 1921.65 665.11, 1922.64 666.51, 1924.99 668.22 C 1927.34 669.94, 1928.80 670.76, 1931.82 671.09 C 1934.83 671.42, 1936.58 671.09, 1940.06 669.89 C 1943.54 668.68, 1945.44 667.53, 1949.23 665.08 C 1953.02 662.63, 1955.12 660.85, 1959.00 657.63 C 1962.89 654.41, 1965.03 652.24, 1968.65 648.97 C 1972.27 645.71, 1974.36 643.66, 1977.11 641.32 C 1979.86 638.98, 1980.96 637.91, 1982.42 637.27 C 1983.89 636.64, 1983.87 636.84, 1984.43 638.15 C 1984.98 639.46, 1984.84 640.97, 1985.20 643.84 C 1985.56 646.70, 1985.76 648.95, 1986.23 652.47 C 1986.70 656.00, 1986.71 658.50, 1987.55 661.46 C 1988.38 664.42, 1989.30 665.62, 1990.41 667.27 C 1991.52 668.92, 1992.19 669.19, 1993.08 669.71 C 1993.97 670.24, 1994.41 670.04, 1994.85 669.90 C 1995.29 669.76, 1995.27 669.35, 1995.28 669.01 C 1995.29 668.66, 1995.05 668.88, 1994.90 668.17 C 1994.75 667.47, 1994.84 667.10, 1994.52 665.48 C 1994.20 663.86, 1993.83 662.86, 1993.30 660.09 C 1992.78 657.32, 1992.44 655.13, 1991.89 651.65 C 1991.35 648.17, 1991.50 645.80, 1990.57 642.67 C 1989.63 639.54, 1989.01 637.74, 1987.21 636.00 C 1985.40 634.26, 1984.08 633.53, 1981.54 633.97 C 1979.00 634.40, 1977.58 635.69, 1974.51 638.16 C 1971.43 640.62, 1969.74 642.95, 1966.18 646.28 C 1962.62 649.60, 1960.51 651.73, 1956.69 654.79 C 1952.87 657.86, 1950.71 659.49, 1947.08 661.61 C 1943.46 663.74, 1941.54 664.49, 1938.58 665.42 C 1935.63 666.35, 1934.43 666.45, 1932.32 666.25 C 1930.21 666.05, 1929.47 665.70, 1928.03 664.40 C 1926.59 663.10, 1926.21 661.99, 1925.13 659.74 C 1924.05 657.50, 1923.71 655.92, 1922.63 653.18 C 1921.54 650.45, 1921.22 648.59, 1919.70 646.08 C 1918.19 643.57, 1917.34 642.13, 1915.04 640.63 C 1912.75 639.13, 1911.36 638.41, 1908.23 638.57 C 1905.10 638.74, 1903.28 639.70, 1899.40 641.45 C 1895.52 643.19, 1893.24 644.83, 1888.81 647.28 C 1884.39 649.73, 1881.75 651.51, 1877.27 653.70 C 1872.79 655.89, 1870.31 657.08, 1866.41 658.23 C 1862.51 659.39, 1860.73 659.70, 1857.78 659.47 C 1854.83 659.24, 1853.76 658.95, 1851.66 657.07 C 1849.55 655.18, 1848.53 653.92, 1847.26 650.03 C 1845.98 646.15, 1845.48 643.49, 1845.29 637.63 C 1845.10 631.78, 1845.36 627.94, 1846.31 620.76 C 1847.26 613.58, 1848.13 609.08, 1850.05 601.71 C 1851.97 594.35, 1853.38 590.12, 1855.92 583.94 C 1858.47 577.76, 1860.15 574.78, 1862.75 570.83 C 1865.36 566.89, 1867.08 565.75, 1868.97 564.21 C 1870.86 562.66, 1871.17 562.28, 1872.19 563.12 C 1873.20 563.96, 1873.78 565.01, 1874.04 568.42 C 1874.31 571.82, 1874.61 574.49, 1873.50 580.14 C 1872.40 585.80, 1871.41 589.57, 1868.54 596.69 C 1865.66 603.81, 1863.72 608.14, 1859.14 615.76 C 1854.56 623.37, 1851.66 627.59, 1845.66 634.75 C 1839.66 641.91, 1836.07 645.56, 1829.15 651.56 C 1822.23 657.56, 1818.32 660.38, 1811.07 664.76 C 1803.81 669.14, 1799.76 670.98, 1792.88 673.47 C 1786.01 675.96, 1782.33 676.67, 1776.69 677.20 C 1771.04 677.73, 1768.37 677.29, 1764.67 676.12 C 1760.98 674.96, 1759.75 673.88, 1758.20 671.39 C 1756.65 668.90, 1756.40 667.25, 1756.93 663.66 C 1757.46 660.07, 1758.44 657.53, 1760.85 653.44 C 1763.25 649.34, 1765.36 646.81, 1768.95 643.17 C 1772.53 639.53, 1774.95 637.62, 1778.75 635.24 C 1782.55 632.86, 1784.86 632.37, 1787.95 631.29 C 1791.04 630.22, 1792.29 630.42, 1794.20 629.86 C 1796.12 629.30, 1796.87 629.20, 1797.53 628.50 C 1798.18 627.79, 1798.28 627.02, 1797.48 626.35" style="stroke: black; fill: black;"/><path d="M 1995.10,573.05 C 1994.46 572.51, 1993.65 572.30, 1993.42 572.47 C 1993.19 572.65, 1993.29 573.32, 1993.95 573.93 C 1994.62 574.53, 1995.97 575.06, 1996.72 575.51 C 1997.47 575.96, 1997.72 576.25, 1997.70 576.18 C 1997.68 576.11, 1997.14 575.80, 1996.62 575.17 C 1996.10 574.55, 1995.74 573.59, 1995.10 573.05" style="stroke: black; fill: black;"/><path d="M 2099.04,562.52 C 2098.29 563.42, 2097.98 564.31, 2097.32 567.29 C 2096.66 570.27, 2096.69 572.39, 2095.74 577.42 C 2094.80 582.44, 2094.11 585.92, 2092.60 592.41 C 2091.09 598.90, 2089.96 602.88, 2088.19 609.86 C 2086.43 616.85, 2085.26 620.72, 2083.78 627.35 C 2082.31 633.97, 2081.75 637.81, 2080.82 642.97 C 2079.90 648.14, 2079.39 650.00, 2079.16 653.17 C 2078.92 656.33, 2079.24 657.64, 2079.63 658.79 C 2080.02 659.93, 2080.56 659.93, 2081.09 658.89 C 2081.62 657.84, 2081.78 656.63, 2082.30 653.55 C 2082.82 650.46, 2082.89 648.58, 2083.69 643.45 C 2084.48 638.32, 2084.87 634.47, 2086.26 627.88 C 2087.65 621.29, 2088.80 617.45, 2090.64 610.50 C 2092.48 603.55, 2093.72 599.58, 2095.46 593.12 C 2097.19 586.66, 2098.07 583.21, 2099.31 578.19 C 2100.54 573.17, 2101.28 571.11, 2101.64 568.02 C 2102.01 564.93, 2101.63 563.86, 2101.11 562.76 C 2100.59 561.66, 2099.80 561.61, 2099.04 562.52" style="stroke: black; fill: black;"/><path d="M 2082.89,695.91 C 2082.08 696.33, 2081.65 697.17, 2081.77 697.81 C 2081.89 698.45, 2082.65 698.95, 2083.49 699.12 C 2084.33 699.29, 2085.24 699.07, 2085.98 698.67 C 2086.72 698.28, 2087.22 697.74, 2087.19 697.14 C 2087.16 696.54, 2086.68 695.93, 2085.82 695.69 C 2084.96 695.44, 2083.70 695.48, 2082.89 695.91" style="stroke: black; fill: black;"/></svg>
